<svg width="18" height="20" viewBox="0 0 18 20" fill="none" xmlns="http://www.w3.org/2000/svg">
<path d="M3.60039 0.90918L0.900391 4.54554V17.2728C0.900391 17.755 1.09003 18.2175 1.4276 18.5585C1.76516 18.8994 2.223 19.091 2.70039 19.091H15.3004C15.7778 19.091 16.2356 18.8994 16.5732 18.5585C16.9107 18.2175 17.1004 17.755 17.1004 17.2728V4.54554L14.4004 0.90918H3.60039Z" stroke="#1D2123" stroke-width="1.5" stroke-linecap="round" stroke-linejoin="round"/>
<path d="M0.900391 4.54541H17.1004" stroke="#1D2123" stroke-width="1.5" stroke-linecap="round" stroke-linejoin="round"/>
<path d="M12.6004 8.18188C12.6004 9.14631 12.2211 10.0712 11.546 10.7532C10.8708 11.4351 9.95517 11.8182 9.00039 11.8182C8.04561 11.8182 7.12994 11.4351 6.45481 10.7532C5.77968 10.0712 5.40039 9.14631 5.40039 8.18188" stroke="#1D2123" stroke-width="1.5" stroke-linecap="round" stroke-linejoin="round"/>
</svg>
