<svg width="16" height="16" viewBox="0 0 16 16" fill="none" xmlns="http://www.w3.org/2000/svg">
<path d="M8 15.5C12.1421 15.5 15.5 12.1421 15.5 8C15.5 3.85786 12.1421 0.5 8 0.5C3.85786 0.5 0.5 3.85786 0.5 8C0.5 12.1421 3.85786 15.5 8 15.5Z" stroke="white" stroke-linecap="round" stroke-linejoin="round"/>
<path d="M10.0832 5.49996C9.66219 5.07565 9.14302 4.79919 8.58796 4.70374C8.03291 4.60828 7.46554 4.6979 6.95394 4.96184C6.44235 5.22577 6.00826 5.65281 5.70376 6.1917C5.39927 6.7306 5.2373 7.35847 5.2373 7.99996C5.2373 8.64145 5.39927 9.26932 5.70376 9.80822C6.00826 10.3471 6.44235 10.7742 6.95394 11.0381C7.46554 11.302 8.03291 11.3916 8.58796 11.2962C9.14302 11.2007 9.66219 10.9243 10.0832 10.5" stroke="white" stroke-linecap="round" stroke-linejoin="round"/>
</svg>
