<svg width="19" height="20" viewBox="0 0 19 20" fill="none" xmlns="http://www.w3.org/2000/svg">
<g clip-path="url(#clip0_469_8038)">
<path d="M18.9902 10.1871C18.9902 9.36767 18.9255 8.76973 18.7856 8.14966H9.68945V11.848H15.0287C14.9211 12.7671 14.3398 14.1512 13.048 15.0813L13.0299 15.2051L15.906 17.4969L16.1052 17.5174C17.9352 15.7789 18.9902 13.221 18.9902 10.1871Z" fill="white"/>
<path d="M9.69003 19.9314C12.3058 19.9314 14.5018 19.0456 16.1058 17.5175L13.0486 15.0814C12.2305 15.6683 11.1325 16.078 9.69003 16.078C7.12804 16.078 4.95358 14.3396 4.17844 11.9368L4.06483 11.9467L1.07427 14.3274L1.03516 14.4392C2.62832 17.6946 5.90081 19.9314 9.69003 19.9314Z" fill="white"/>
<path d="M4.17863 11.9366C3.9741 11.3165 3.85573 10.6521 3.85573 9.96559C3.85573 9.27903 3.9741 8.61468 4.16787 7.9946L4.16245 7.86254L1.13441 5.4436L1.03534 5.49208C0.378723 6.84299 0.00195312 8.36002 0.00195312 9.96559C0.00195312 11.5712 0.378723 13.0881 1.03534 14.439L4.17863 11.9366Z" fill="white"/>
<path d="M9.69003 3.85336C11.5092 3.85336 12.7364 4.66168 13.4361 5.33717L16.1704 2.59107C14.4911 0.985496 12.3058 0 9.69003 0C5.90081 0 2.62832 2.23672 1.03516 5.49214L4.16768 7.99466C4.95358 5.59183 7.12804 3.85336 9.69003 3.85336Z" fill="white"/>
</g>
<defs>
<clipPath id="clip0_469_8038">
<rect width="19" height="20" fill="white"/>
</clipPath>
</defs>
</svg>
