<svg width="179" height="49" viewBox="0 0 179 49" fill="none" xmlns="http://www.w3.org/2000/svg">
<path d="M25.3078 36.6261C26.7873 36.6261 27.9867 35.4267 27.9867 33.9472C27.9867 32.4677 26.7873 31.2683 25.3078 31.2683C23.8283 31.2683 22.6289 32.4677 22.6289 33.9472C22.6289 35.4267 23.8283 36.6261 25.3078 36.6261Z" fill="#1D2123"/>
<path d="M54.7807 20.1279C59.8664 19.2496 64.2578 16.2702 64.2578 10.2492C64.2578 2.88355 57.6461 0.0181356 51.9748 0.0181356L42.9641 0C41.2127 0 41.5236 0.0181356 41.5054 0.0259079C41.4873 0.0336803 41.6816 0.207263 41.7645 0.310895H50.5732C53.962 0.310895 57.7316 2.93796 58.6384 10.2492C59.5011 17.1977 54.0216 19.1874 50.7235 19.9387L48.7053 20.0346H13.9964C10.2973 20.0145 6.74071 21.4602 4.10475 24.0555C2.75598 25.3769 1.69549 26.9633 0.990087 28.7148C0.284684 30.4662 -0.0503428 32.3448 0.00611434 34.2322C0.0538693 37.9426 1.57364 41.4821 4.2311 44.072C5.54693 45.3544 7.10248 46.3651 8.8089 47.0463C10.5153 47.7276 12.3392 48.066 14.1765 48.0424C16.0137 48.0187 17.8283 47.6334 19.5166 46.9085C21.2049 46.1836 22.7339 45.1332 24.0163 43.8174C25.2987 42.5016 26.3094 40.946 26.9906 39.2396C27.6719 37.5332 28.0103 35.7093 27.9867 33.872H27.8131C27.8179 37.4294 26.4503 40.8516 23.9952 43.426C21.5402 46.0004 18.1867 47.5286 14.6331 47.6926C11.0795 47.8565 7.59957 46.6434 4.9179 44.306C2.23622 41.9685 0.559453 38.6868 0.236695 35.1441C-0.512044 27.0401 5.96494 20.2082 13.9964 20.2082H50.3556C51.6847 20.2885 52.9697 20.4206 52.9697 20.4206C55.703 20.7523 61.4442 23.2265 61.4442 30.5895C61.4442 37.5173 57.6668 40.2998 54.0993 40.6081C53.9283 40.6366 50.6147 40.6288 50.6147 40.6288C50.4981 40.6962 50.6561 40.8698 50.8219 40.9268H53.8376C60.5737 40.9268 67.1154 37.9448 67.1154 30.5791C67.1154 23.2135 60.4519 20.1279 54.7807 20.1279Z" fill="#1D2123"/>
<path d="M14.8333 31.6648C14.649 31.7138 14.4622 31.7527 14.2737 31.7814C12.0093 37.4811 9.28383 39.9994 5.58936 40.6341V40.9347H18.0407V40.6419C14.6856 40.6341 13.8643 36.0899 14.8333 31.6648Z" fill="#1D2123"/>
<path d="M33.7642 40.634V40.9345H46.6249L46.3658 40.6366C42.7387 40.6366 41.3578 36.5509 39.8396 32.8098C38.267 29.0609 27.2095 0 27.2095 0H26.6913C26.6913 0 25.7353 2.45089 24.2664 6.2179L24.4114 6.55989C24.528 6.85265 34.8161 33.6829 35.4016 35.2607C36.9794 39.5251 36.57 40.634 33.7642 40.634Z" fill="#1D2123"/>
<path d="M41.718 40.634V40.9345H54.5787L54.3196 40.6366C50.6925 40.6366 49.3116 36.5509 47.7908 32.8098C46.2156 29.0609 35.1685 0 35.1685 0H34.6503L32.2253 6.192C32.2772 6.30858 42.7673 33.6777 43.3658 35.2555C44.9306 39.5251 44.5212 40.634 41.718 40.634Z" fill="#1D2123"/>
<path d="M88.198 11.0448C88.7342 11.1499 89.2174 11.4375 89.5654 11.8587C89.9134 12.2799 90.1047 12.8086 90.1068 13.355C90.1068 14.9305 88.8039 15.8698 86.6528 15.8698H83.1155L83.32 15.794C83.4662 15.7394 83.592 15.641 83.6801 15.5122C83.7682 15.3834 83.8144 15.2305 83.8123 15.0744V7.79533C83.8144 7.63928 83.7682 7.4864 83.6801 7.3576C83.592 7.2288 83.4662 7.13036 83.32 7.07575L83.1155 7H86.2968C87.9859 7 89.3266 7.31813 89.3266 9.27235C89.3215 9.64342 89.2132 10.0057 89.0139 10.3188C88.8145 10.6318 88.532 10.8832 88.198 11.0448ZM84.4637 7.36357V10.916H86.5543C87.6678 10.916 88.6449 10.6282 88.6449 9.24206C88.6449 7.85593 87.6829 7.36357 86.5695 7.36357H84.4637ZM84.4637 15.491H86.8573C87.8647 15.491 89.4251 15.0441 89.4251 13.3399C89.4251 11.825 88.4328 11.2796 86.8421 11.2796H84.4637V15.491Z" fill="#1D2123"/>
<path d="M106.271 14.3927L105.862 15.8698H100.181L100.378 15.794C100.524 15.7394 100.65 15.641 100.738 15.5122C100.826 15.3834 100.872 15.2305 100.87 15.0744V7.79533C100.872 7.63928 100.826 7.4864 100.738 7.3576C100.65 7.2288 100.524 7.13036 100.378 7.07575L100.181 7H105.619L105.687 8.11345L105.506 7.7726C105.442 7.65024 105.347 7.54749 105.229 7.47542C105.112 7.40334 104.977 7.36467 104.839 7.36357H101.552V11.1508H103.673C103.821 11.1535 103.967 11.1125 104.092 11.0331C104.217 10.9537 104.316 10.8392 104.377 10.7039L104.468 10.5297V12.0446L104.377 11.8704C104.316 11.7352 104.217 11.6207 104.092 11.5413C103.967 11.4618 103.821 11.4209 103.673 11.4235H101.552V15.5213H104.938C105.128 15.5225 105.317 15.4768 105.486 15.3883C105.655 15.2999 105.799 15.1713 105.907 15.0138L106.271 14.3927Z" fill="#1D2123"/>
<path d="M122.965 15.8697L123.313 15.741C123.41 15.7067 123.489 15.6356 123.533 15.5433C123.577 15.451 123.582 15.345 123.548 15.2486L122.283 12.3173H118.875L117.602 15.2486C117.554 15.3367 117.541 15.4399 117.567 15.537C117.592 15.6341 117.654 15.7179 117.739 15.7713L118.026 15.9H116.383L116.671 15.7713C116.938 15.6477 117.147 15.425 117.254 15.1501L120.715 7.04541L124.207 15.188C124.266 15.3378 124.355 15.4734 124.47 15.5857C124.585 15.6981 124.723 15.7846 124.874 15.8394L125.018 15.9L122.965 15.8697ZM120.526 8.36338L119.011 11.9537H122.117L120.526 8.36338Z" fill="#1D2123"/>
<path d="M141.856 7L141.644 7.10604C141.511 7.16578 141.398 7.26258 141.319 7.38484C141.239 7.5071 141.197 7.64962 141.197 7.79533V12.9081C141.195 13.693 140.882 14.4451 140.327 15.0001C139.772 15.5551 139.02 15.8678 138.235 15.8698H137.713C136.928 15.8678 136.177 15.5548 135.623 14.9996C135.069 14.4444 134.758 13.6923 134.758 12.9081V7.79533C134.761 7.63928 134.714 7.4864 134.626 7.3576C134.538 7.2288 134.412 7.13036 134.266 7.07575L134.062 7H136.114L135.91 7.07575C135.764 7.13036 135.638 7.2288 135.55 7.3576C135.462 7.4864 135.415 7.63928 135.417 7.79533V12.9081C135.38 13.5355 135.583 14.1536 135.986 14.6364C136.388 15.1191 136.96 15.4302 137.584 15.5062H138.508C139.14 15.4348 139.722 15.1307 140.143 14.6533C140.563 14.1758 140.79 13.5591 140.78 12.9233V7.81048C140.78 7.66477 140.738 7.52225 140.658 7.39999C140.579 7.27774 140.466 7.18093 140.333 7.1212L140.114 7.01515L141.856 7Z" fill="#1D2123"/>
<path d="M159.694 8.12859L159.512 7.78016C159.448 7.65921 159.352 7.558 159.234 7.48731C159.117 7.41661 158.982 7.37908 158.845 7.37871H156.149V15.0593C156.146 15.2144 156.191 15.3666 156.278 15.4953C156.365 15.624 156.489 15.723 156.634 15.7788L156.838 15.8546H154.786L154.99 15.7788C155.136 15.7242 155.262 15.6258 155.35 15.497C155.438 15.3682 155.484 15.2153 155.482 15.0593V7.37871H152.778C152.643 7.38044 152.51 7.4186 152.394 7.48923C152.278 7.55985 152.183 7.66033 152.119 7.78016L151.93 8.12859L152.006 7.01514H159.626L159.694 8.12859Z" fill="#1D2123"/>
<path d="M178.259 7.0303L178.054 7.1212C177.797 7.2354 177.577 7.419 177.418 7.65141L174.388 12.1961V15.0517C174.386 15.2078 174.432 15.3606 174.521 15.4894C174.609 15.6182 174.734 15.7167 174.881 15.7713L175.078 15.847H173.032L173.229 15.7713C173.376 15.7167 173.501 15.6182 173.589 15.4894C173.678 15.3606 173.724 15.2078 173.722 15.0517V12.181L170.692 7.63626C170.508 7.36801 170.242 7.16617 169.934 7.0606L169.791 7H171.836L171.404 7.15907C171.377 7.1706 171.353 7.18806 171.333 7.21017C171.314 7.23227 171.299 7.25846 171.291 7.28681C171.283 7.31515 171.282 7.34494 171.287 7.37395C171.292 7.40297 171.304 7.43048 171.321 7.45448L174.176 11.7644L177.009 7.4772C177.033 7.42893 177.037 7.37324 177.02 7.3222C177.003 7.27115 176.966 7.22887 176.918 7.20452L176.486 7L178.259 7.0303Z" fill="#1D2123"/>
<path d="M91.5383 34.7017L91.7429 34.7775H89.6902L89.8947 34.7017C90.0395 34.6459 90.1636 34.5469 90.2503 34.4182C90.337 34.2895 90.3821 34.1373 90.3794 33.9822V30.3464H84.4713V33.9822C84.4692 34.1382 84.5154 34.2911 84.6036 34.4199C84.6917 34.5487 84.8175 34.6471 84.9637 34.7017L85.1682 34.7775H83.1155L83.32 34.7017C83.4648 34.6459 83.5889 34.5469 83.6756 34.4182C83.7623 34.2895 83.8074 34.1373 83.8048 33.9822V26.703C83.8074 26.5479 83.7623 26.3957 83.6756 26.267C83.5889 26.1383 83.4648 26.0393 83.32 25.9835L83.1155 25.9077H85.1682L84.9637 25.9835C84.8175 26.0381 84.6917 26.1365 84.6036 26.2653C84.5154 26.3941 84.4692 26.547 84.4713 26.703V29.9828H90.4022V26.703C90.4048 26.5479 90.3597 26.3957 90.273 26.267C90.1863 26.1383 90.0622 26.0393 89.9174 25.9835L89.7129 25.9077H91.7656L91.5611 25.9835C91.4149 26.0381 91.2891 26.1365 91.201 26.2653C91.1128 26.3941 91.0667 26.547 91.0687 26.703V33.9822C91.0649 34.1355 91.1078 34.2865 91.1916 34.415C91.2755 34.5435 91.3964 34.6435 91.5383 34.7017Z" fill="#1D2123"/>
<path d="M111.065 30.3842C111.065 33.255 108.793 34.8002 106.46 34.8002C104.127 34.8002 101.855 33.2853 101.855 30.3842C101.855 27.4832 104.127 25.9456 106.46 25.9456C108.793 25.9456 111.065 27.4908 111.065 30.3842ZM110.384 30.3842C110.36 29.612 110.109 28.8639 109.662 28.2334C109.216 27.6029 108.593 27.118 107.873 26.8392C107.152 26.5603 106.366 26.5 105.611 26.6657C104.856 26.8314 104.167 27.2158 103.63 27.7709C103.093 28.3259 102.731 29.0271 102.589 29.7866C102.448 30.5462 102.534 31.3305 102.836 32.0417C103.138 32.7529 103.642 33.3593 104.287 33.7852C104.932 34.2112 105.687 34.4377 106.46 34.4366C106.988 34.4444 107.513 34.344 108.001 34.1414C108.489 33.9388 108.93 33.6385 109.298 33.2588C109.666 32.8791 109.952 32.4282 110.138 31.9339C110.325 31.4395 110.408 30.9121 110.384 30.3842Z" fill="#1D2123"/>
<path d="M128.972 25.9304L128.759 26.0365C128.627 26.0962 128.514 26.193 128.434 26.3153C128.355 26.4375 128.313 26.58 128.313 26.7257V31.8385C128.311 32.6234 127.998 33.3755 127.443 33.9305C126.888 34.4855 126.136 34.7982 125.351 34.8002H124.828C124.044 34.7982 123.293 34.4853 122.739 33.9301C122.185 33.3749 121.874 32.6227 121.874 31.8385V26.7257C121.876 26.5697 121.83 26.4168 121.742 26.288C121.654 26.1592 121.528 26.0608 121.382 26.0062L121.177 25.9304H123.23L123.026 26.0062C122.879 26.0608 122.754 26.1592 122.665 26.288C122.577 26.4168 122.531 26.5697 122.533 26.7257V31.8385C122.496 32.466 122.699 33.084 123.102 33.5668C123.504 34.0495 124.076 34.3606 124.7 34.4366H125.624C126.256 34.3652 126.838 34.0611 127.258 33.5837C127.678 33.1062 127.906 32.4895 127.896 31.8537V26.7409C127.896 26.5952 127.853 26.4527 127.774 26.3304C127.695 26.2082 127.582 26.1114 127.449 26.0516L127.229 25.9456L128.972 25.9304Z" fill="#1D2123"/>
<path d="M142.348 29.9071C143.522 30.5282 144.749 30.9978 144.749 32.5051C144.749 33.861 143.234 34.8153 141.583 34.8153C140.786 34.8375 140.007 34.5682 139.394 34.0579C139.361 34.0342 139.321 34.021 139.28 34.02C139.247 34.0196 139.215 34.0286 139.187 34.0461C139.158 34.0635 139.136 34.0886 139.121 34.1185L139.031 34.2624V32.9672L139.303 33.4216C139.568 33.7659 139.915 34.0389 140.311 34.2161C140.708 34.3932 141.142 34.469 141.576 34.4366C142.818 34.4366 144.03 33.7701 144.03 32.49C144.03 31.5886 142.833 31.0887 141.795 30.5206C140.758 29.9525 139.258 29.3238 139.258 28.1725C139.258 26.8167 140.455 25.9001 142.113 25.9001C142.693 25.909 143.264 26.0433 143.787 26.294C143.815 26.3008 143.843 26.3008 143.871 26.294C143.902 26.2946 143.933 26.2864 143.959 26.2703C143.986 26.2542 144.008 26.2309 144.022 26.2031L144.136 26.0138V27.3166L143.977 27.0439C143.775 26.7464 143.492 26.5123 143.162 26.3688C142.833 26.2254 142.469 26.1784 142.113 26.2334C140.901 26.2334 139.932 26.8394 139.932 27.6802C139.932 28.8769 141.333 29.2632 142.356 29.8162L142.348 29.9071Z" fill="#1D2123"/>
<path d="M160.974 33.3231L160.565 34.8002H154.876L155.081 34.7244C155.227 34.6698 155.353 34.5714 155.441 34.4426C155.529 34.3138 155.575 34.1609 155.573 34.0049V26.7257C155.575 26.5697 155.529 26.4168 155.441 26.288C155.353 26.1592 155.227 26.0608 155.081 26.0062L154.876 25.9304H160.338L160.406 27.0439L160.224 26.703C160.161 26.5807 160.065 26.4779 159.948 26.4058C159.83 26.3338 159.695 26.2951 159.558 26.294H156.247V30.0813H158.376C158.524 30.0839 158.67 30.043 158.795 29.9635C158.92 29.8841 159.02 29.7696 159.08 29.6344L159.164 29.4601V30.9751L159.08 30.8008C159.02 30.6656 158.92 30.5511 158.795 30.4717C158.67 30.3922 158.524 30.3513 158.376 30.3539H156.247V34.4518H159.641C159.832 34.4529 160.02 34.4072 160.189 34.3188C160.358 34.2303 160.503 34.1017 160.61 33.9443L160.974 33.3231Z" fill="#1D2123"/>
</svg>
