<svg width="20" height="17" viewBox="0 0 20 17" fill="none" xmlns="http://www.w3.org/2000/svg">
<path d="M17.3979 2.20102C16.973 1.7722 16.4684 1.43202 15.9131 1.19993C15.3578 0.967845 14.7626 0.848389 14.1615 0.848389C13.5604 0.848389 12.9651 0.967845 12.4098 1.19993C11.8545 1.43202 11.3499 1.7722 10.925 2.20102L10.0431 3.09056L9.16117 2.20102C8.30281 1.33523 7.13862 0.848837 5.92471 0.848837C4.7108 0.848837 3.54661 1.33523 2.68824 2.20102C1.82988 3.06681 1.34766 4.24107 1.34766 5.46548C1.34766 6.68989 1.82988 7.86415 2.68824 8.72993L3.57016 9.61948L10.0431 16.1484L16.516 9.61948L17.3979 8.72993C17.8231 8.30131 18.1603 7.7924 18.3904 7.23227C18.6205 6.67215 18.739 6.07178 18.739 5.46548C18.739 4.85917 18.6205 4.25881 18.3904 3.69868C18.1603 3.13855 17.8231 2.62964 17.3979 2.20102V2.20102Z" stroke="#1D2123" stroke-width="1.5" stroke-linecap="round" stroke-linejoin="round"/>
</svg>
