<svg width="20" height="20" viewBox="0 0 20 20" fill="none" xmlns="http://www.w3.org/2000/svg">
<g opacity="0.8">
<path d="M14.5455 0.909119H5.45463C2.94425 0.909119 0.90918 2.94419 0.90918 5.45457V14.5455C0.90918 17.0559 2.94425 19.0909 5.45463 19.0909H14.5455C17.0559 19.0909 19.091 17.0559 19.091 14.5455V5.45457C19.091 2.94419 17.0559 0.909119 14.5455 0.909119Z" stroke="white" stroke-width="1.5" stroke-linecap="round" stroke-linejoin="round"/>
<path d="M13.6367 9.42725C13.7489 10.1838 13.6197 10.9565 13.2674 11.6354C12.9151 12.3144 12.3578 12.8649 11.6746 13.2088C10.9914 13.5526 10.2171 13.6723 9.46198 13.5508C8.70683 13.4293 8.00923 13.0728 7.46839 12.5319C6.92755 11.9911 6.57102 11.2935 6.44951 10.5384C6.32799 9.78321 6.44769 9.00897 6.79156 8.32577C7.13543 7.64257 7.68598 7.0852 8.36489 6.73293C9.04379 6.38065 9.81649 6.25142 10.5731 6.36362C11.3448 6.47806 12.0593 6.83767 12.611 7.38935C13.1627 7.94103 13.5223 8.6555 13.6367 9.42725Z" stroke="white" stroke-width="1.5" stroke-linecap="round" stroke-linejoin="round"/>
<path d="M15 5H15.01" stroke="white" stroke-width="1.5" stroke-linecap="round" stroke-linejoin="round"/>
</g>
</svg>
