<svg width="68" height="49" viewBox="0 0 68 49" fill="none" xmlns="http://www.w3.org/2000/svg">
<path d="M25.3078 36.6261C26.7873 36.6261 27.9867 35.4267 27.9867 33.9472C27.9867 32.4677 26.7873 31.2683 25.3078 31.2683C23.8283 31.2683 22.6289 32.4677 22.6289 33.9472C22.6289 35.4267 23.8283 36.6261 25.3078 36.6261Z" fill="#1D2123"/>
<path d="M54.7807 20.1279C59.8664 19.2496 64.2578 16.2702 64.2578 10.2492C64.2578 2.88355 57.6461 0.0181356 51.9748 0.0181356L42.9641 0C41.2127 0 41.5236 0.0181356 41.5054 0.0259079C41.4873 0.0336803 41.6816 0.207263 41.7645 0.310895H50.5732C53.962 0.310895 57.7316 2.93796 58.6384 10.2492C59.5011 17.1977 54.0216 19.1874 50.7235 19.9387L48.7053 20.0346H13.9964C10.2973 20.0145 6.74071 21.4602 4.10475 24.0555C2.75598 25.3769 1.69549 26.9633 0.990087 28.7148C0.284684 30.4662 -0.0503428 32.3448 0.00611434 34.2322C0.0538693 37.9426 1.57364 41.4821 4.2311 44.072C5.54693 45.3544 7.10248 46.3651 8.8089 47.0463C10.5153 47.7276 12.3392 48.066 14.1765 48.0424C16.0137 48.0187 17.8283 47.6334 19.5166 46.9085C21.2049 46.1836 22.7339 45.1332 24.0163 43.8174C25.2987 42.5016 26.3094 40.946 26.9906 39.2396C27.6719 37.5332 28.0103 35.7093 27.9867 33.872H27.8131C27.8179 37.4294 26.4503 40.8516 23.9952 43.426C21.5402 46.0004 18.1867 47.5286 14.6331 47.6926C11.0795 47.8565 7.59957 46.6434 4.9179 44.306C2.23622 41.9685 0.559453 38.6868 0.236695 35.1441C-0.512044 27.0401 5.96494 20.2082 13.9964 20.2082H50.3556C51.6847 20.2885 52.9697 20.4206 52.9697 20.4206C55.703 20.7523 61.4442 23.2265 61.4442 30.5895C61.4442 37.5173 57.6668 40.2998 54.0993 40.6081C53.9283 40.6366 50.6147 40.6288 50.6147 40.6288C50.4981 40.6962 50.6561 40.8698 50.8219 40.9268H53.8376C60.5737 40.9268 67.1154 37.9448 67.1154 30.5791C67.1154 23.2135 60.4519 20.1279 54.7807 20.1279Z" fill="#1D2123"/>
<path d="M14.8338 31.6648C14.6495 31.7138 14.4627 31.7527 14.2742 31.7814C12.0098 37.4811 9.28432 39.9994 5.58984 40.6341V40.9347H18.0412V40.6419C14.6861 40.6341 13.8648 36.0899 14.8338 31.6648Z" fill="#1D2123"/>
<path d="M33.7635 40.634V40.9345H46.6242L46.3651 40.6366C42.738 40.6366 41.3571 36.5509 39.8389 32.8098C38.2663 29.0609 27.2088 0 27.2088 0H26.6906C26.6906 0 25.7346 2.45089 24.2656 6.2179L24.4107 6.55989C24.5273 6.85265 34.8153 33.6829 35.4009 35.2607C36.9786 39.5251 36.5693 40.634 33.7635 40.634Z" fill="#1D2123"/>
<path d="M41.7173 40.634V40.9345H54.578L54.3189 40.6366C50.6918 40.6366 49.3109 36.5509 47.7901 32.8098C46.2149 29.0609 35.1678 0 35.1678 0H34.6496L32.2246 6.192C32.2764 6.30858 42.7665 33.6777 43.365 35.2555C44.9299 39.5251 44.5205 40.634 41.7173 40.634Z" fill="#1D2123"/>
</svg>
