<svg width="96" height="28" viewBox="0 0 96 28" fill="none" xmlns="http://www.w3.org/2000/svg">
<path d="M5.19773 4.04479C5.73391 4.14986 6.21712 4.43746 6.56513 4.85867C6.91314 5.27987 7.10445 5.80865 7.10651 6.35502C7.10651 7.93052 5.8037 8.86976 3.65253 8.86976H0.115234L0.319746 8.79401C0.465945 8.7394 0.591707 8.64097 0.679835 8.51217C0.767962 8.38336 0.814153 8.23049 0.81209 8.07444V0.795326C0.814153 0.639275 0.767962 0.4864 0.679835 0.357598C0.591707 0.228796 0.465945 0.130359 0.319746 0.0757498L0.115234 0H3.29653C4.98565 0 6.32634 0.31813 6.32634 2.27235C6.32121 2.64342 6.21293 3.00574 6.01361 3.31876C5.81429 3.63179 5.53179 3.88317 5.19773 4.04479ZM1.4635 0.363574V3.91602H3.55406C4.66752 3.91602 5.64463 3.6282 5.64463 2.24206C5.64463 0.855925 4.68267 0.363574 3.56921 0.363574H1.4635ZM1.4635 8.49104H3.85705C4.86446 8.49104 6.42481 8.04413 6.42481 6.33987C6.42481 4.82496 5.43255 4.27961 3.8419 4.27961H1.4635V8.49104Z" fill="#1D2123"/>
<path d="M23.2696 7.39272L22.8606 8.86976H17.1797L17.3766 8.79401C17.5228 8.7394 17.6486 8.64097 17.7367 8.51217C17.8248 8.38336 17.871 8.23049 17.869 8.07444V0.795326C17.871 0.639275 17.8248 0.4864 17.7367 0.357598C17.6486 0.228796 17.5228 0.130359 17.3766 0.0757498L17.1797 0H22.6182L22.6864 1.11345L22.5046 0.772604C22.4412 0.650241 22.3456 0.547493 22.2282 0.475418C22.1107 0.403344 21.9758 0.364667 21.838 0.363574H18.5507V4.15083H20.6715C20.8198 4.15348 20.9656 4.11255 21.0908 4.0331C21.216 3.95366 21.3152 3.83921 21.376 3.70394L21.4669 3.52973V5.04463L21.376 4.87042C21.3152 4.73515 21.216 4.6207 21.0908 4.54125C20.9656 4.46181 20.8198 4.42087 20.6715 4.42351H18.5507V8.52133H21.9365C22.1273 8.52248 22.3154 8.47681 22.4845 8.38834C22.6535 8.29986 22.7982 8.17127 22.906 8.01384L23.2696 7.39272Z" fill="#1D2123"/>
<path d="M39.9651 8.86973L40.3135 8.74096C40.4098 8.70668 40.4886 8.6356 40.5326 8.54331C40.5767 8.45103 40.5823 8.34505 40.5483 8.24861L39.2834 5.31728H35.8748L34.6023 8.24861C34.5542 8.3367 34.5414 8.43985 34.5668 8.53699C34.5921 8.63413 34.6536 8.71792 34.7387 8.77126L35.0265 8.90002H33.3828L33.6706 8.77126C33.9383 8.64771 34.1474 8.42499 34.2539 8.15014L37.7154 0.0454102L41.2073 8.18801C41.2656 8.3378 41.3552 8.4734 41.4702 8.58574C41.5851 8.69808 41.7228 8.78457 41.8738 8.83942L42.0178 8.90002L39.9651 8.86973ZM37.5261 1.36338L36.0112 4.95371H39.1167L37.5261 1.36338Z" fill="#1D2123"/>
<path d="M58.8547 0L58.6426 0.106043C58.5097 0.165781 58.3969 0.262583 58.3176 0.38484C58.2384 0.507097 58.196 0.649622 58.1957 0.795326V5.90812C58.1937 6.69298 57.8811 7.44513 57.3261 8.00011C56.7711 8.55509 56.019 8.86776 55.2341 8.86976H54.7115C53.9273 8.86776 53.1759 8.55484 52.6222 7.99965C52.0684 7.44445 51.7574 6.69229 51.7574 5.90812V0.795326C51.7595 0.639275 51.7133 0.4864 51.6251 0.357598C51.537 0.228796 51.4113 0.130359 51.2651 0.0757498L51.0605 0H53.1132L52.9087 0.0757498C52.7625 0.130359 52.6368 0.228796 52.5486 0.357598C52.4605 0.4864 52.4143 0.639275 52.4164 0.795326V5.90812C52.379 6.53555 52.5823 7.15362 52.9848 7.63636C53.3873 8.1191 53.9588 8.43017 54.5827 8.50618H55.5068C56.1387 8.43476 56.7214 8.13072 57.1414 7.65327C57.5615 7.17582 57.7888 6.55913 57.7791 5.92328V0.810479C57.7788 0.664775 57.7365 0.522249 57.6573 0.399992C57.578 0.277735 57.4651 0.180933 57.3322 0.121195L57.1126 0.0151523L58.8547 0Z" fill="#1D2123"/>
<path d="M76.6936 1.12859L76.5118 0.780159C76.4474 0.65921 76.3514 0.558003 76.234 0.487307C76.1166 0.416612 75.9822 0.379076 75.8452 0.37871H73.1487V8.05927C73.1461 8.21443 73.1911 8.36665 73.2778 8.49534C73.3645 8.62404 73.4887 8.723 73.6335 8.77885L73.838 8.8546H71.7853L71.9898 8.77885C72.136 8.72424 72.2618 8.62581 72.3499 8.49701C72.438 8.36821 72.4842 8.21532 72.4821 8.05927V0.37871H69.778C69.6423 0.380436 69.5095 0.418602 69.3936 0.489226C69.2777 0.559849 69.1828 0.660333 69.1191 0.780159L68.9297 1.12859L69.0054 0.0151367H76.6254L76.6936 1.12859Z" fill="#1D2123"/>
<path d="M95.2593 0.0303045L95.0548 0.121195C94.7976 0.235401 94.5773 0.419 94.4185 0.651409L91.3887 5.19612V8.05171C91.3867 8.20776 91.4329 8.36064 91.521 8.48944C91.6091 8.61824 91.7349 8.71668 91.8811 8.77129L92.078 8.84704H90.0329L90.2298 8.77129C90.376 8.71668 90.5018 8.61824 90.5899 8.48944C90.6781 8.36064 90.7243 8.20776 90.7222 8.05171V5.18097L87.6924 0.636257C87.5083 0.368009 87.2427 0.166168 86.9349 0.0605975L86.791 0H88.8361L88.4044 0.15907C88.3773 0.170603 88.3531 0.188059 88.3337 0.210167C88.3142 0.232275 88.3 0.258463 88.292 0.286807C88.284 0.31515 88.2824 0.344937 88.2875 0.373952C88.2925 0.402968 88.304 0.430483 88.3211 0.454476L91.1767 4.76438L94.0095 0.477198C94.0333 0.428928 94.0371 0.373238 94.0201 0.322197C94.003 0.271155 93.9666 0.228873 93.9186 0.204515L93.4869 0L95.2593 0.0303045Z" fill="#1D2123"/>
<path d="M8.53809 27.7017L8.74261 27.7775H6.68991L6.89442 27.7017C7.03921 27.6459 7.16334 27.5469 7.25005 27.4182C7.33675 27.2895 7.38183 27.1373 7.37919 26.9822V23.3464H1.47107V26.9822C1.469 27.1382 1.5152 27.2911 1.60332 27.4199C1.69145 27.5487 1.81721 27.6471 1.96341 27.7017L2.16792 27.7775H0.115234L0.319738 27.7017C0.464521 27.6459 0.588658 27.5469 0.67536 27.4182C0.762061 27.2895 0.807143 27.1373 0.804507 26.9822V19.703C0.807143 19.5479 0.762061 19.3957 0.67536 19.267C0.588658 19.1383 0.464521 19.0393 0.319738 18.9835L0.115234 18.9077H2.16792L1.96341 18.9835C1.81721 19.0381 1.69145 19.1365 1.60332 19.2653C1.5152 19.3941 1.469 19.547 1.47107 19.703V22.9828H7.40192V19.703C7.40455 19.5479 7.35947 19.3957 7.27277 19.267C7.18607 19.1383 7.06193 19.0393 6.91715 18.9835L6.71263 18.9077H8.76533L8.56081 18.9835C8.41462 19.0381 8.28885 19.1365 8.20072 19.2653C8.11259 19.3941 8.06641 19.547 8.06848 19.703V26.9822C8.06466 27.1355 8.10751 27.2865 8.19137 27.415C8.27523 27.5435 8.39614 27.6435 8.53809 27.7017Z" fill="#1D2123"/>
<path d="M28.0641 23.3842C28.0641 26.255 25.7918 27.8002 23.4588 27.8002C21.1259 27.8002 18.8535 26.2853 18.8535 23.3842C18.8535 20.4832 21.1259 18.9456 23.4588 18.9456C25.7918 18.9456 28.0641 20.4908 28.0641 23.3842ZM27.3824 23.3842C27.3586 22.612 27.1078 21.8639 26.6612 21.2334C26.2147 20.6029 25.5923 20.118 24.8718 19.8392C24.1513 19.5603 23.3646 19.5 22.6099 19.6657C21.8553 19.8314 21.1663 20.2158 20.6289 20.7709C20.0914 21.3259 19.7295 22.0271 19.5882 22.7866C19.447 23.5462 19.5326 24.3305 19.8346 25.0417C20.1365 25.7529 20.6413 26.3593 21.2859 26.7852C21.9304 27.2112 22.6862 27.4377 23.4588 27.4366C23.9872 27.4444 24.5116 27.344 24.9997 27.1414C25.4878 26.9388 25.9293 26.6385 26.2969 26.2588C26.6645 25.8791 26.9504 25.4282 27.1371 24.9339C27.3238 24.4395 27.4073 23.9121 27.3824 23.3842Z" fill="#1D2123"/>
<path d="M45.9719 18.9304L45.7598 19.0365C45.6269 19.0962 45.5141 19.193 45.4348 19.3153C45.3556 19.4375 45.3132 19.58 45.3129 19.7257V24.8385C45.3109 25.6234 44.9983 26.3755 44.4433 26.9305C43.8883 27.4855 43.1361 27.7982 42.3513 27.8002H41.8286C41.0445 27.7982 40.2931 27.4853 39.7393 26.9301C39.1856 26.3749 38.8746 25.6227 38.8746 24.8385V19.7257C38.8767 19.5697 38.8305 19.4168 38.7423 19.288C38.6542 19.1592 38.5284 19.0608 38.3822 19.0062L38.1777 18.9304H40.2304L40.0259 19.0062C39.8797 19.0608 39.754 19.1592 39.6658 19.288C39.5777 19.4168 39.5315 19.5697 39.5336 19.7257V24.8385C39.4962 25.466 39.6995 26.084 40.102 26.5668C40.5045 27.0495 41.076 27.3606 41.6999 27.4366H42.624C43.2559 27.3652 43.8386 27.0611 44.2586 26.5837C44.6787 26.1062 44.906 25.4895 44.8963 24.8537V19.7409C44.896 19.5952 44.8537 19.4527 44.7744 19.3304C44.6952 19.2082 44.5823 19.1114 44.4494 19.0516L44.2298 18.9456L45.9719 18.9304Z" fill="#1D2123"/>
<path d="M59.3489 22.9071C60.5229 23.5282 61.75 23.9978 61.75 25.5051C61.75 26.861 60.2351 27.8153 58.5839 27.8153C57.7863 27.8375 57.0081 27.5682 56.3948 27.0579C56.3616 27.0342 56.322 27.021 56.2812 27.02C56.2481 27.0196 56.2155 27.0286 56.1873 27.0461C56.1592 27.0635 56.1365 27.0886 56.1221 27.1185L56.0312 27.2624V25.9672L56.3039 26.4216C56.5689 26.7659 56.9153 27.0389 57.3119 27.2161C57.7086 27.3932 58.1431 27.469 58.5763 27.4366C59.8185 27.4366 61.0304 26.7701 61.0304 25.49C61.0304 24.5886 59.8337 24.0887 58.7959 23.5206C57.7582 22.9525 56.2585 22.3238 56.2585 21.1725C56.2585 19.8167 57.4553 18.9001 59.1141 18.9001C59.694 18.909 60.2651 19.0433 60.788 19.294C60.8154 19.3008 60.844 19.3008 60.8714 19.294C60.9026 19.2946 60.9334 19.2864 60.9602 19.2703C60.9869 19.2542 61.0087 19.2309 61.0229 19.2031L61.1365 19.0138V20.3166L60.9774 20.0439C60.7753 19.7464 60.4929 19.5123 60.1631 19.3688C59.8333 19.2254 59.4695 19.1784 59.1141 19.2334C57.9022 19.2334 56.9326 19.8394 56.9326 20.6802C56.9326 21.8769 58.3339 22.2632 59.3565 22.8162L59.3489 22.9071Z" fill="#1D2123"/>
<path d="M77.9744 26.3231L77.5654 27.8002H71.877L72.0815 27.7244C72.2277 27.6698 72.3534 27.5714 72.4416 27.4426C72.5297 27.3138 72.5759 27.1609 72.5738 27.0049V19.7257C72.5759 19.5697 72.5297 19.4168 72.4416 19.288C72.3534 19.1592 72.2277 19.0608 72.0815 19.0062L71.877 18.9304H77.3382L77.4063 20.0439L77.2246 19.703C77.1612 19.5807 77.0656 19.4779 76.9481 19.4058C76.8307 19.3338 76.6958 19.2951 76.558 19.294H73.2479V23.0813H75.3764C75.5246 23.0839 75.6704 23.043 75.7956 22.9635C75.9209 22.8841 76.02 22.7696 76.0808 22.6344L76.1641 22.4601V23.9751L76.0808 23.8008C76.02 23.6656 75.9209 23.5511 75.7956 23.4717C75.6704 23.3922 75.5246 23.3513 75.3764 23.3539H73.2479V27.4518H76.6413C76.8321 27.4529 77.0203 27.4072 77.1893 27.3188C77.3583 27.2303 77.5031 27.1017 77.6108 26.9443L77.9744 26.3231Z" fill="#1D2123"/>
</svg>
