<svg width="20" height="17" viewBox="0 0 20 17" fill="none" xmlns="http://www.w3.org/2000/svg">
<g opacity="0.8">
<path d="M19.1663 0.849978C18.3683 1.42413 17.4848 1.86327 16.5497 2.15048C16.0478 1.56186 15.3808 1.14467 14.6389 0.955315C13.897 0.765964 13.1159 0.813594 12.4014 1.09176C11.6869 1.36993 11.0734 1.86522 10.6438 2.51064C10.2143 3.15606 9.98942 3.92046 9.99967 4.70048V5.55048C8.5352 5.58921 7.08407 5.25792 5.77551 4.58611C4.46696 3.9143 3.34161 2.92282 2.49967 1.69998C2.49967 1.69998 -0.833659 9.34998 6.66634 12.75C4.95011 13.9382 2.90564 14.5341 0.833008 14.45C8.33301 18.7 17.4997 14.45 17.4997 4.67498C17.4989 4.43821 17.4766 4.20203 17.433 3.96948C18.2835 3.11395 18.8837 2.03378 19.1663 0.849978V0.849978Z" stroke="white" stroke-width="1.5" stroke-linecap="round" stroke-linejoin="round"/>
</g>
</svg>
