<svg width="20" height="15" viewBox="0 0 20 15" fill="none" xmlns="http://www.w3.org/2000/svg">
<g opacity="0.8">
<path d="M18.7835 2.84998C18.6845 2.45449 18.4829 2.09212 18.199 1.79948C17.9152 1.50685 17.5591 1.2943 17.1668 1.18331C15.7335 0.833313 10.0001 0.833313 10.0001 0.833313C10.0001 0.833313 4.26682 0.833313 2.83348 1.21665C2.44119 1.32763 2.08513 1.54018 1.80127 1.83282C1.51741 2.12546 1.31581 2.48782 1.21682 2.88331C0.954496 4.33794 0.826181 5.81357 0.833484 7.29165C0.824134 8.78085 0.952457 10.2677 1.21682 11.7333C1.32595 12.1165 1.53207 12.4651 1.81527 12.7454C2.09847 13.0257 2.44917 13.2282 2.83348 13.3333C4.26682 13.7166 10.0001 13.7166 10.0001 13.7166C10.0001 13.7166 15.7335 13.7166 17.1668 13.3333C17.5591 13.2223 17.9152 13.0098 18.199 12.7171C18.4829 12.4245 18.6845 12.0621 18.7835 11.6666C19.0438 10.223 19.1721 8.75859 19.1668 7.29165C19.1762 5.80244 19.0478 4.31556 18.7835 2.84998V2.84998Z" stroke="white" stroke-width="1.5" stroke-linecap="round" stroke-linejoin="round"/>
<path d="M8.125 10.0167L12.9167 7.29165L8.125 4.56665V10.0167Z" stroke="white" stroke-width="1.5" stroke-linecap="round" stroke-linejoin="round"/>
</g>
</svg>
