<svg width="64" height="64" viewBox="0 0 64 64" fill="none" xmlns="http://www.w3.org/2000/svg">
<circle cx="32" cy="32" r="32" fill="url(#paint0_linear_302_5321)"/>
<path d="M17.269 33.7655L15.8248 28.3756L14.0765 28.8441L13.6831 27.3759L18.7445 26.0197L19.1379 27.4879L17.3703 27.9615L18.8145 33.3514L17.269 33.7655ZM21.5226 32.6257L19.685 25.7677L22.3895 25.043C23.0206 24.8739 23.5861 24.9363 24.0858 25.2303C24.5856 25.5243 24.9132 25.9611 25.0685 26.5407C25.2997 27.4036 25.01 28.1127 24.1995 28.6681L27.434 31.0418L25.5891 31.5361L22.5415 29.3194L22.3001 29.3841L23.0584 32.2142L21.5226 32.6257ZM21.9506 28.0801L22.9359 27.8161C23.1677 27.7539 23.3381 27.6427 23.447 27.4824C23.5623 27.3204 23.5941 27.1428 23.5423 26.9496C23.4871 26.7435 23.3699 26.6024 23.1907 26.5262C23.018 26.4482 22.8157 26.4403 22.5839 26.5024L21.5987 26.7664L21.9506 28.0801ZM27.9181 30.9121L26.0804 24.054L30.4271 22.8893L30.8205 24.3575L28.0097 25.1107L28.3384 26.3374L30.5697 25.7395L30.9631 27.2078L28.7318 27.8056L29.0605 29.0324L31.8713 28.2792L32.2647 29.7474L27.9181 30.9121ZM39.6375 27.7719L38.3142 28.1264L33.8359 24.7815L34.9721 29.022L33.4363 29.4335L31.5987 22.5754L32.922 22.2208L37.3906 25.5683L36.2544 21.3279L37.7999 20.9138L39.6375 27.7719ZM41.0863 27.3837L39.2487 20.5256L41.5863 19.8992C42.5522 19.6404 43.4662 19.7544 44.3282 20.2412C45.1902 20.728 45.7481 21.4447 46.0017 22.3913C46.2554 23.338 46.1306 24.2376 45.6275 25.0902C45.1243 25.9428 44.3898 26.4985 43.4239 26.7573L41.0863 27.3837ZM42.2443 25.5619L43.046 25.3471C43.6127 25.1952 44.0246 24.8778 44.2816 24.3948C44.5434 23.9036 44.5984 23.3747 44.4466 22.808C44.2947 22.2414 43.9835 21.814 43.513 21.526C43.0471 21.2298 42.5308 21.1576 41.9641 21.3095L41.1624 21.5243L42.2443 25.5619ZM14.7379 46.9913C13.9394 47.2052 13.2333 47.1459 12.6197 46.8134C12.006 46.4809 11.6035 46.009 11.4121 45.3977L12.9479 44.9862C13.0754 45.2557 13.2637 45.4434 13.5129 45.5492C13.7668 45.6468 14.0483 45.6542 14.3574 45.5713C14.6214 45.5006 14.8192 45.3889 14.9509 45.2363C15.089 45.082 15.133 44.9114 15.083 44.7247C14.995 44.3963 14.6291 44.2286 13.9854 44.2216L13.2723 44.2264C12.6578 44.2254 12.1397 44.095 11.7181 43.8353C11.2965 43.5755 11.0126 43.1857 10.8664 42.6659C10.6956 42.0284 10.7727 41.4659 11.0976 40.9785C11.4273 40.483 11.9495 40.1395 12.6643 39.9479C13.3855 39.7547 14.0301 39.8166 14.5982 40.1337C15.1646 40.4444 15.5357 40.8764 15.7116 41.4297L14.1854 41.8387C14.0473 41.6065 13.8758 41.4558 13.6709 41.3864C13.4659 41.3171 13.2572 41.3109 13.0447 41.3679C12.8065 41.4317 12.6262 41.5318 12.504 41.668C12.3818 41.8043 12.3416 41.9635 12.3835 42.1455C12.4253 42.3275 12.5294 42.4584 12.6957 42.5381C12.8684 42.616 13.1068 42.6557 13.4109 42.657L14.2476 42.6502C14.8621 42.6512 15.3746 42.7865 15.7851 43.0561C16.2019 43.324 16.482 43.7252 16.6252 44.2597C16.7839 44.8521 16.6914 45.4084 16.3476 45.9284C16.0021 46.442 15.4655 46.7963 14.7379 46.9913ZM17.2771 46.1866L18.3759 38.5417L19.7669 38.169L24.5409 44.2403L22.9375 44.6699L21.9407 43.3841L19.1009 44.145L18.8806 45.757L17.2771 46.1866ZM19.6123 40.3742L19.2943 42.6645L21.0233 42.2012L19.6123 40.3742ZM25.8035 43.902L24.3593 38.5121L22.6109 38.9806L22.2175 37.5124L27.279 36.1562L27.6724 37.6244L25.9047 38.098L27.349 43.4879L25.8035 43.902ZM30.057 42.7623L28.2194 35.9042L29.7552 35.4927L31.5928 42.3507L30.057 42.7623ZM35.3581 41.4661C34.5596 41.68 33.8535 41.6208 33.2399 41.2882C32.6263 40.9557 32.2238 40.4838 32.0323 39.8725L33.5682 39.461C33.6956 39.7306 33.8839 39.9182 34.1331 40.024C34.387 40.1216 34.6685 40.129 34.9776 40.0462C35.2417 39.9754 35.4395 39.8637 35.5712 39.7111C35.7092 39.5568 35.7533 39.3863 35.7032 39.1995C35.6152 38.8711 35.2494 38.7034 34.6056 38.6965L33.8926 38.7012C33.278 38.7002 32.76 38.5698 32.3384 38.3101C31.9168 38.0504 31.6329 37.6606 31.4867 37.1407C31.3159 36.5032 31.3929 35.9407 31.7179 35.4534C32.0475 34.9578 32.5697 34.6143 33.2845 34.4228C34.0057 34.2295 34.6504 34.2914 35.2185 34.6085C35.7849 34.9192 36.156 35.3512 36.3319 35.9045L34.8057 36.3135C34.6676 36.0813 34.496 35.9306 34.2911 35.8613C34.0862 35.7919 33.8775 35.7857 33.665 35.8427C33.4267 35.9065 33.2465 36.0066 33.1242 36.1429C33.002 36.2791 32.9618 36.4383 33.0037 36.6203C33.0456 36.8024 33.1497 36.9332 33.316 37.0129C33.4887 37.0908 33.7271 37.1305 34.0311 37.1318L34.8679 37.125C35.4824 37.126 35.9949 37.2613 36.4053 37.531C36.8222 37.7989 37.1022 38.2 37.2454 38.7345C37.4042 39.327 37.3117 39.8832 36.9679 40.4032C36.6224 40.9168 36.0858 41.2711 35.3581 41.4661ZM34.6573 43.6416L34.4891 43.0137C34.7116 43.0714 34.9709 43.0606 35.2672 42.9812C35.6535 42.8777 35.82 42.7261 35.7665 42.5265C35.7199 42.3526 35.5582 42.3028 35.2813 42.377C35.146 42.4132 35.0259 42.4799 34.9208 42.5771L34.5239 42.4868L34.8267 41.4532L35.4449 41.2875L35.2845 41.8481C35.4656 41.7513 35.6173 41.6865 35.7397 41.6537C35.9779 41.5899 36.1925 41.6049 36.3832 41.6987C36.5805 41.7908 36.711 41.9559 36.7748 42.1942C36.8508 42.4775 36.7776 42.7456 36.5555 42.9984C36.3333 43.2512 36.0484 43.4241 35.7007 43.5173C35.2885 43.6277 34.9408 43.6692 34.6573 43.6416ZM38.8485 40.4066L37.0108 33.5485L38.5467 33.137L39.9909 38.5269L42.8307 37.7659L43.2241 39.2342L38.8485 40.4066ZM43.4439 39.1753L44.5427 31.5304L45.9337 31.1577L50.7077 37.2289L49.1042 37.6586L48.1075 36.3727L45.2677 37.1337L45.0474 38.7456L43.4439 39.1753ZM45.7791 33.3628L45.4611 35.6532L47.1901 35.1899L45.7791 33.3628ZM51.4225 37.0374L49.5849 30.1793L52.2894 29.4546C52.9205 29.2855 53.4859 29.348 53.9857 29.642C54.4855 29.936 54.8131 30.3728 54.9684 30.9523C55.1996 31.8152 54.9099 32.5243 54.0994 33.0797L57.3339 35.4534L55.489 35.9478L52.4414 33.731L52.1999 33.7957L52.9583 36.6259L51.4225 37.0374ZM51.8505 32.4917L52.8358 32.2277C53.0676 32.1656 53.238 32.0544 53.3468 31.8941C53.4622 31.7321 53.494 31.5544 53.4422 31.3613C53.387 31.1552 53.2698 31.014 53.0906 30.9378C52.9179 30.8599 52.7156 30.852 52.4838 30.9141L51.4985 31.1781L51.8505 32.4917Z" fill="#0758D1"/>
<defs>
<linearGradient id="paint0_linear_302_5321" x1="9.14286" y1="10.2857" x2="52" y2="55.4286" gradientUnits="userSpaceOnUse">
<stop stop-color="#FFD84C"/>
<stop offset="1" stop-color="#FFC46D"/>
</linearGradient>
</defs>
</svg>
